<svg
        xmlns="http://www.w3.org/2000/svg"
        viewBox="0 0 448 512"
        aria-labelledby="title"
        width="1em"
        height="1em"
        fill="currentColor"
>
    <path d="
M 345.4 232.8
Q 340.5 221.45 331.6 214.7
L 56.55 6.6
Q 48.3 0.35 38.3 0.05 28.55 -0.25 19.9 5.25 10.9 10.95 5.7 21.45 0 32.9 0 47.95
L 0 464
Q 0 477.65 5.35 488.9 10.4 499.55 19 505.75 27.55 511.95 37.3 512.05 47.55 512.15 56.55 505.3
L 331.6 297.3
Q 340.5 290.55 345.4 279.2 350 268.45 350 256 350 243.55 345.4 232.8
M 443.4 232.8
Q 438.5 221.45 429.6 214.7
L 154.55 6.6
Q 146.3 0.35 136.3 0.05 126.55 -0.25 117.9 5.25 108.9 10.95 103.7 21.45 102.390234375 24.080859375 101.35 26.9
L 349.6 214.7
Q 358.5 221.45 363.4 232.8 368 243.55 368 256 368 268.45 363.4 279.2 358.5 290.55 349.6 297.3
L 101.6 484.8
Q 102.4001953125 486.9025390625 103.35 488.9 108.4 499.55 117 505.75 125.55 511.95 135.3 512.05 145.55 512.15 154.55 505.3
L 429.6 297.3
Q 438.5 290.55 443.4 279.2 448 268.45 448 256 448 243.55 443.4 232.8 Z"/>
</svg>
