<svg
        xmlns="http://www.w3.org/2000/svg"
        viewBox="0 0 448 512"
        aria-labelledby="title"
        width="1em"
        height="1em"
        fill="currentColor"
>
    <title id="title">Stop</title>
    <path d="
M 350 80
Q 350 60.15 339 46.05 328.4 32.45 313.5 32
L 37.5 32
Q 22 32 11 46.05 0 60.15 0 80
L 0 419 1 419 1 432
Q 1 451.9 12 465.95 22.95 480 38.5 480
L 313.5 480
Q 328.4 479.55 339 465.95 350 451.9 350 432
L 350 80
M 437 46.05
Q 426.05 32 410.5 32
L 329.45 32
Q 344.3921875 32.4390625 355 46.05 366 60.15 366 80
L 366 432
Q 366 451.9 355 465.95 344.3921875 479.5609375 329.45 480
L 410.5 480
Q 426.05 480 437 465.95 448 451.9 448 432
L 448 80
Q 448 60.15 437 46.05 Z"/>
</svg>
